<svg width="340" height="340" viewBox="0 0 340 340" fill="none" xmlns="http://www.w3.org/2000/svg">
<g clip-path="url(#clip0_135_159)">
<path d="M169.945 1.52588e-05C136.333 1.52588e-05 103.476 9.96713 75.5288 28.641C47.5814 47.3148 25.7991 73.8566 12.9363 104.91C0.0735742 135.964 -3.29191 170.134 3.26547 203.1C9.82284 236.066 26.0086 266.348 49.7758 290.115C73.5431 313.882 103.824 330.068 136.791 336.625C169.757 343.183 203.927 339.817 234.981 326.954C266.034 314.092 292.576 292.309 311.25 264.362C329.923 236.415 339.891 203.557 339.891 169.945C339.891 147.628 335.495 125.529 326.954 104.91C318.414 84.2913 305.896 65.5567 290.115 49.7758C274.334 33.995 255.599 21.4769 234.981 12.9363C214.362 4.39578 192.263 1.52588e-05 169.945 1.52588e-05V1.52588e-05ZM169.945 318.885C140.367 318.885 111.452 310.114 86.8588 293.681C62.2651 277.248 43.0966 253.892 31.7774 226.565C20.4582 199.238 17.4966 169.168 23.267 140.157C29.0375 111.147 43.281 84.4996 64.1962 63.5844C85.1114 42.6692 111.759 28.4257 140.769 22.6552C169.779 16.8848 199.849 19.8464 227.176 31.1656C254.503 42.4848 277.86 61.6533 294.293 86.247C310.726 110.841 319.497 139.755 319.497 169.334C319.479 208.985 303.715 247.007 275.67 275.039C247.626 303.07 209.597 318.817 169.945 318.817V318.885Z" fill="#111111"/>
<path d="M169.945 24.812C141.308 24.812 113.314 33.304 89.5024 49.2141C65.6913 65.1242 47.1327 87.7379 36.1737 114.195C25.2146 140.653 22.3472 169.766 27.9341 197.853C33.521 225.94 47.3112 251.74 67.5609 271.99C87.8106 292.24 113.61 306.03 141.698 311.617C169.785 317.204 198.898 314.336 225.355 303.377C251.813 292.418 274.427 273.859 290.337 250.048C306.247 226.237 314.739 198.243 314.739 169.605C314.685 131.22 299.412 94.423 272.27 67.2806C245.128 40.1383 208.33 24.866 169.945 24.812V24.812Z" fill="#111111"/>
<path d="M161.473 101.907C158.407 102.15 155.471 102.511 152.703 102.988C152.823 103.059 152.95 103.126 153.07 103.192C155.669 102.636 158.485 102.201 161.473 101.907Z" fill="white"/>
<path d="M173.493 101.614C173.579 101.589 173.671 101.573 173.757 101.546C172.607 101.509 171.438 101.486 170.259 101.486C167.214 101.486 164.276 101.631 161.473 101.907C164.308 101.683 167.241 101.562 170.259 101.562C171.345 101.562 172.426 101.585 173.493 101.614Z" fill="white"/>
<path d="M189.086 103.221V103.58C198.053 105.774 203.981 109.485 203.981 113.679C203.981 120.396 188.777 125.953 170.259 125.953C151.661 125.953 136.532 120.396 136.532 113.679C136.532 109.492 142.413 105.787 151.352 103.592V103.236C138.348 105.682 129.43 110.559 129.43 116.15C129.43 124.178 147.799 130.737 170.259 130.737C192.718 130.737 211.004 124.178 211.004 116.15C211.004 110.552 202.101 105.665 189.086 103.221Z" fill="white"/>
<path d="M158.524 104.571H159.223C163.142 104.571 168.217 102.859 173.493 101.614C172.426 101.584 171.345 101.562 170.259 101.562C167.241 101.562 164.306 101.683 161.473 101.907C158.485 102.201 155.669 102.636 153.07 103.192C154.486 103.981 155.995 104.571 158.524 104.571Z" fill="white"/>
<path d="M181.293 94.9238C177.203 94.9238 176.665 97.9332 172.805 97.9332C170.721 97.9332 171.184 96.1587 167.632 96.1587H167.016C162.54 96.1587 162.772 99.7872 159.223 99.7872C154.747 99.7872 154.285 95.2317 150.034 94.9238V115.375H190.402V94.9238H181.293ZM189.086 106.347C187.547 105.654 186.231 105.187 183.915 105.187C174.885 105.187 168.479 109.355 159.835 109.355H156.597C154.205 109.355 152.969 108.893 151.35 108.198V102.179C153.431 103.414 154.973 104.571 158.522 104.571H159.223C165.397 104.571 174.425 100.325 182.609 100.325H185.85C187.628 100.325 187.628 100.636 189.088 100.943V106.347H189.086Z" fill="white"/>
<path d="M165.086 81.5738C162.924 81.5738 161.149 82.8831 161.149 84.507C161.149 86.0497 162.924 87.3624 165.086 87.3624C167.248 87.3624 169.02 86.0514 169.02 84.507C169.02 82.8831 167.249 81.5738 165.086 81.5738ZM165.162 87.0528C163.619 87.0528 162.383 86.0497 162.383 84.8149C162.383 83.5817 163.617 82.5769 165.162 82.5769C166.706 82.5769 167.946 83.5834 167.946 84.8149C167.946 86.0497 166.706 87.0528 165.162 87.0528Z" fill="white"/>
<path d="M180.826 88.2065C178.823 87.5941 171.184 85.5084 169.638 85.4306C169.308 85.4306 168.643 85.2902 167.899 85.1363C167.704 86.2206 166.566 87.0528 165.162 87.0528C163.7 87.0528 162.523 86.1461 162.408 84.9958C157.068 85.6556 150.034 88.1777 150.034 93.1493C156.21 93.305 155.67 97.9332 159.837 97.9332C161.224 97.9332 162.153 94.3808 166.322 94.3808H168.327C171.801 94.3808 171.416 96.1587 173.5 96.1587C174.117 96.1587 176.355 93.1493 179.979 93.1493H190.402C190.091 89.3669 184.302 89.2908 180.826 88.2065Z" fill="white"/>
<path d="M66 144.72C57.7333 144.72 53.6 152.693 53.6 168.64V174.96C53.6 182.533 54.6933 188.48 56.88 192.8C59.0667 197.067 62.2933 199.2 66.56 199.2C72.4267 199.2 77.8133 193.493 82.72 182.08H84.16L83.6 199.92H82.72C82.4 199.333 82.1067 198.933 81.84 198.72C81.5733 198.453 81.1733 198.32 80.64 198.32C80.16 198.32 78.24 198.747 74.88 199.6C71.52 200.4 68.1067 200.8 64.64 200.8C55.9467 200.8 49.2 198.453 44.4 193.76C39.6533 189.067 37.28 182.027 37.28 172.64C37.28 163.2 39.76 155.92 44.72 150.8C49.7333 145.68 56.4533 143.12 64.88 143.12C68.1333 143.12 71.3067 143.547 74.4 144.4C77.5467 145.2 79.3867 145.6 79.92 145.6C80.4533 145.6 80.8533 145.493 81.12 145.28C81.3867 145.013 81.68 144.587 82 144H82.88L83.52 161.36H82.08C79.68 155.973 77.2 151.867 74.64 149.04C72.1333 146.16 69.2533 144.72 66 144.72ZM109.234 181.2H111.554V175.04C111.554 169.973 111.261 166.587 110.674 164.88C110.141 163.12 109.074 162.24 107.474 162.24C106.514 162.24 105.634 162.507 104.834 163.04C104.088 163.52 103.714 164.213 103.714 165.12C103.714 165.973 103.874 166.853 104.194 167.76H106.194C106.621 168.88 106.834 170.24 106.834 171.84C106.834 173.387 106.168 174.747 104.834 175.92C103.501 177.04 101.821 177.6 99.7944 177.6C95.2077 177.6 92.9144 175.387 92.9144 170.96C92.9144 164.4 98.4877 161.12 109.634 161.12C115.981 161.12 120.354 162.213 122.754 164.4C125.208 166.533 126.434 170.48 126.434 176.24V192.48C126.434 195.253 127.208 196.64 128.754 196.64C130.568 196.64 131.634 193.893 131.954 188.4L133.154 188.48C132.941 193.173 132.061 196.4 130.514 198.16C128.968 199.92 126.434 200.8 122.914 200.8C116.514 200.8 112.834 198.827 111.874 194.88C111.181 196.907 110.141 198.4 108.754 199.36C107.368 200.32 105.341 200.8 102.674 200.8C94.781 200.8 90.8344 197.573 90.8344 191.12C90.8344 187.333 92.3277 184.747 95.3144 183.36C98.3544 181.92 102.994 181.2 109.234 181.2ZM106.034 191.04C106.034 193.813 106.168 195.6 106.434 196.4C106.754 197.2 107.314 197.6 108.114 197.6C108.968 197.6 109.741 196.933 110.434 195.6C111.181 194.213 111.554 192.32 111.554 189.92V182.48H110.994C107.688 182.48 106.034 184.907 106.034 189.76V191.04ZM160.101 200V198.56H163.781L154.741 180L153.221 180.4V198.56H156.901V200H133.941V198.56H138.341V141.44H133.621V140H153.221V178.8L154.501 178.32L172.501 163.36H164.981V161.92H180.741V163.36H175.141L165.621 171.44L179.461 198.56H182.341V200H160.101ZM202.559 200.8C195.679 200.8 190.505 199.04 187.039 195.52C183.625 191.947 181.919 187.013 181.919 180.72C181.919 174.373 183.839 169.52 187.679 166.16C191.572 162.8 196.505 161.12 202.479 161.12C214.585 161.12 220.399 167.2 219.919 179.36H197.359V182.48C197.359 187.707 198.025 191.653 199.359 194.32C200.692 196.987 203.012 198.32 206.319 198.32C212.505 198.32 216.559 195.013 218.479 188.4L219.919 188.64C218.905 192.48 217.065 195.467 214.399 197.6C211.785 199.733 207.839 200.8 202.559 200.8ZM197.439 177.76H205.679V173.84C205.679 169.52 205.412 166.587 204.879 165.04C204.399 163.44 203.385 162.64 201.839 162.64C200.345 162.64 199.225 163.493 198.479 165.2C197.785 166.853 197.439 169.733 197.439 173.84V177.76ZM223.827 200.8V186.48H224.788C226.174 191.12 228.041 194.373 230.388 196.24C232.734 198.107 235.668 199.04 239.188 199.04C244.628 199.04 247.348 197.307 247.348 193.84C247.348 192.347 246.681 191.227 245.348 190.48C243.268 189.307 240.601 188.4 237.348 187.76C233.721 186.8 230.681 185.52 228.228 183.92C225.294 182 223.827 178.96 223.827 174.8C223.827 170.64 225.107 167.333 227.668 164.88C230.228 162.373 233.641 161.12 237.908 161.12C240.521 161.12 243.214 161.733 245.988 162.96C247.001 163.387 247.774 163.6 248.308 163.6C248.841 163.6 249.294 163.413 249.668 163.04C250.041 162.667 250.494 161.973 251.028 160.96H251.908V173.2H250.948C248.228 166.267 244.014 162.8 238.308 162.8C235.801 162.8 233.934 163.253 232.708 164.16C231.481 165.013 230.868 166.107 230.868 167.44C230.868 168.24 231.054 168.88 231.428 169.36C231.801 169.787 232.094 170.107 232.308 170.32C232.521 170.533 232.868 170.773 233.348 171.04C233.828 171.253 234.228 171.44 234.548 171.6C234.868 171.707 235.348 171.867 235.988 172.08C236.681 172.293 237.188 172.427 237.508 172.48C241.134 173.387 243.748 174.187 245.348 174.88C246.948 175.52 248.468 176.32 249.908 177.28C252.841 179.307 254.308 182.587 254.308 187.12C254.308 191.6 252.974 195.013 250.308 197.36C247.641 199.653 243.988 200.8 239.348 200.8C236.041 200.8 232.841 200.027 229.748 198.48C229.108 198.053 228.601 197.84 228.228 197.84C227.054 197.84 225.908 198.827 224.788 200.8H223.827ZM254.322 163.36V161.92H277.522V163.36H273.202L281.922 189.92L291.202 163.36H285.842V161.92H297.122V163.36H293.122L278.162 206.48C276.402 211.493 274.429 214.987 272.242 216.96C270.055 218.987 267.389 220 264.242 220C261.095 220 258.615 219.28 256.802 217.84C254.989 216.4 254.082 214.56 254.082 212.32C254.082 210.08 254.669 208.373 255.842 207.2C257.015 206.027 258.562 205.44 260.482 205.44C264.909 205.44 267.122 207.28 267.122 210.96C267.122 211.76 266.962 212.72 266.642 213.84H263.842C263.415 215.067 263.362 216.08 263.682 216.88C264.002 217.68 264.722 218.08 265.842 218.08C268.029 218.08 269.975 216.987 271.682 214.8C273.389 212.667 275.015 209.387 276.562 204.96L278.322 200H271.282L257.602 163.36H254.322Z" fill="white"/>
<path d="M112.692 239V226.4H117.876C118.992 226.4 119.946 226.58 120.738 226.94C121.542 227.3 122.16 227.816 122.592 228.488C123.024 229.16 123.24 229.958 123.24 230.882C123.24 231.806 123.024 232.604 122.592 233.276C122.16 233.948 121.542 234.464 120.738 234.824C119.946 235.184 118.992 235.364 117.876 235.364H113.988L115.032 234.266V239H112.692ZM115.032 234.518L113.988 233.384H117.768C118.8 233.384 119.574 233.168 120.09 232.736C120.618 232.292 120.882 231.674 120.882 230.882C120.882 230.078 120.618 229.46 120.09 229.028C119.574 228.596 118.8 228.38 117.768 228.38H113.988L115.032 227.228V234.518ZM123.162 239L128.832 226.4H131.136L136.824 239H134.376L129.498 227.642H130.434L125.574 239H123.162ZM125.772 236.084L126.402 234.248H133.206L133.836 236.084H125.772ZM142.332 239.18C141.348 239.18 140.406 239.042 139.506 238.766C138.606 238.478 137.892 238.112 137.364 237.668L138.174 235.85C138.678 236.246 139.302 236.576 140.046 236.84C140.79 237.104 141.552 237.236 142.332 237.236C142.992 237.236 143.526 237.164 143.934 237.02C144.342 236.876 144.642 236.684 144.834 236.444C145.026 236.192 145.122 235.91 145.122 235.598C145.122 235.214 144.984 234.908 144.708 234.68C144.432 234.44 144.072 234.254 143.628 234.122C143.196 233.978 142.71 233.846 142.17 233.726C141.642 233.606 141.108 233.468 140.568 233.312C140.04 233.144 139.554 232.934 139.11 232.682C138.678 232.418 138.324 232.07 138.048 231.638C137.772 231.206 137.634 230.654 137.634 229.982C137.634 229.298 137.814 228.674 138.174 228.11C138.546 227.534 139.104 227.078 139.848 226.742C140.604 226.394 141.558 226.22 142.71 226.22C143.466 226.22 144.216 226.316 144.96 226.508C145.704 226.7 146.352 226.976 146.904 227.336L146.166 229.154C145.602 228.818 145.02 228.572 144.42 228.416C143.82 228.248 143.244 228.164 142.692 228.164C142.044 228.164 141.516 228.242 141.108 228.398C140.712 228.554 140.418 228.758 140.226 229.01C140.046 229.262 139.956 229.55 139.956 229.874C139.956 230.258 140.088 230.57 140.352 230.81C140.628 231.038 140.982 231.218 141.414 231.35C141.858 231.482 142.35 231.614 142.89 231.746C143.43 231.866 143.964 232.004 144.492 232.16C145.032 232.316 145.518 232.52 145.95 232.772C146.394 233.024 146.748 233.366 147.012 233.798C147.288 234.23 147.426 234.776 147.426 235.436C147.426 236.108 147.24 236.732 146.868 237.308C146.508 237.872 145.95 238.328 145.194 238.676C144.438 239.012 143.484 239.18 142.332 239.18ZM152.127 239V228.38H147.951V226.4H158.643V228.38H154.467V239H152.127ZM162.559 231.638H168.823V233.564H162.559V231.638ZM162.739 237.038H169.849V239H160.399V226.4H169.597V228.362H162.739V237.038ZM172.458 239V226.4H174.798V237.02H181.386V239H172.458ZM185.393 231.638H191.657V233.564H185.393V231.638ZM185.573 237.038H192.683V239H183.233V226.4H192.431V228.362H185.573V237.038ZM195.292 239V226.4H200.476C201.592 226.4 202.546 226.58 203.338 226.94C204.142 227.3 204.76 227.816 205.192 228.488C205.624 229.16 205.84 229.958 205.84 230.882C205.84 231.806 205.624 232.604 205.192 233.276C204.76 233.936 204.142 234.446 203.338 234.806C202.546 235.154 201.592 235.328 200.476 235.328H196.588L197.632 234.266V239H195.292ZM203.536 239L200.35 234.428H202.852L206.056 239H203.536ZM197.632 234.518L196.588 233.402H200.368C201.4 233.402 202.174 233.18 202.69 232.736C203.218 232.292 203.482 231.674 203.482 230.882C203.482 230.078 203.218 229.46 202.69 229.028C202.174 228.596 201.4 228.38 200.368 228.38H196.588L197.632 227.228V234.518ZM208.458 239V226.4H210.798V239H208.458ZM208.116 225.374L210.546 222.908H213.192L210.06 225.374H208.116ZM212.424 239L218.094 226.4H220.398L226.086 239H223.638L218.76 227.642H219.696L214.836 239H212.424ZM215.034 236.084L215.664 234.248H222.468L223.098 236.084H215.034Z" fill="white"/>
</g>
<defs>
<clipPath id="clip0_135_159">
<rect width="339.891" height="339.891" fill="white"/>
</clipPath>
</defs>
</svg>
