<svg width="779" height="212" viewBox="0 0 779 212" fill="none" xmlns="http://www.w3.org/2000/svg">
<path d="M94.6729 189.47C93.1843 187.939 91.4347 187.302 89.5827 186.972C88.5768 186.794 87.5643 186.681 86.5596 186.541C86.5596 178.259 86.5596 170.117 86.5596 161.904C87.5039 161.904 88.2423 161.899 88.9794 161.904C89.7336 161.909 90.4877 161.938 91.2406 161.922C93.461 161.869 93.9948 161.007 93.5751 158.246C92.9508 154.132 90.9651 151.186 88.3617 148.775C87.601 148.071 86.7826 147.463 85.917 146.749C87.719 144.134 88.8929 141.292 89.1172 137.935C89.2024 136.659 89.2942 135.383 89.3834 134.109C89.5486 131.779 89.2142 131.302 87.3872 131.528C85.0972 131.807 82.983 132.723 81.1035 134.421C80.6957 134.789 80.2432 135.073 79.8563 135.364C79.2831 133.5 78.7401 131.848 78.2771 130.163C78.083 129.456 77.9689 128.675 77.9702 127.927C77.9781 120.503 77.8889 113.074 78.1001 105.659C78.2181 101.495 76.3137 99.7399 73.5805 99.0831C72.6519 98.8593 71.6958 98.8005 70.5508 98.6355C70.5508 97.402 70.5442 96.2306 70.5534 95.0592C70.6124 86.5294 70.6885 77.9997 70.7265 69.465C70.737 67.0177 69.9186 65.6486 67.9854 65.0523C66.3945 64.5622 64.7602 64.1472 63.13 64.0181C57.1847 63.5525 51.2355 63.1147 45.281 62.8859C42.831 62.7928 40.3535 63.1114 37.9153 63.5084C34.5237 64.0606 31.1634 64.8366 27.9396 66.405C26.1625 67.2709 25.3834 68.6465 25.3651 71.0171C25.3323 75.1946 25.1342 79.3704 25.028 83.5479C24.9939 84.9268 24.9545 86.2811 23.9945 87.5228C21.8199 85.8253 19.3949 85.1424 16.7967 85.4463C14.8005 85.6783 14.2077 86.6062 14.7979 88.9686C15.2372 90.7184 15.8799 92.3946 16.4452 94.146C16.0438 94.4498 15.6936 94.7031 15.3513 94.9726C13.5361 96.407 12.3531 98.4721 11.6921 100.968C11.0193 103.517 11.5885 104.422 13.7473 104.456C14.887 104.474 16.0255 104.46 17.1875 104.46C17.1875 116.917 17.1875 129.079 17.1875 141.338C15.9442 141.676 14.811 141.964 13.6843 142.291C11.0743 143.054 9.96215 144.424 9.86641 147.703C9.59885 156.908 9.43753 166.116 9.27489 175.325C9.21325 178.805 9.2644 182.286 9.2644 185.849C8.81979 186.014 8.4237 186.127 8.05253 186.307C6.2111 187.192 4.33558 187.996 2.54793 189.024C0.911106 189.967 0.251393 191.819 0.0389212 193.986C-0.24044 196.849 1.01865 198.651 2.70531 200.166C6.92065 203.95 11.7787 205.786 16.7914 206.804C21.3097 207.722 25.908 208.029 30.4683 208.625C40.1633 209.897 49.8833 210.329 59.6058 209.424C66.0875 208.82 72.5561 207.892 79.0037 206.861C83.505 206.139 87.8528 204.615 91.7875 201.612C93.3299 200.434 94.7175 199.091 95.6854 197.16C97.1412 194.271 96.7596 191.618 94.6729 189.47ZM91.3573 159.218C86.7459 159.742 82.9437 158.025 80.1527 153.452C81.1403 151.776 82.0518 150.231 83.0001 148.62C86.9229 149.214 91.1251 154.403 91.3573 159.218ZM86.9767 134.289C87.5931 139.512 85.8632 144.215 83.2611 145.177C82.0046 143.47 80.8386 141.887 79.5677 140.162C81.2478 137.081 83.6073 134.757 86.9767 134.289ZM78.4332 143.117C79.5454 143.723 80.6432 144.418 80.6734 146.339C80.7048 148.396 80.2051 149.968 78.6627 150.925C76.2731 152.408 73.6041 151.247 72.4997 148.205C71.4715 145.375 73.2054 142.416 75.8875 142.315C76.74 142.572 77.6437 142.686 78.4332 143.117ZM76.3321 168.004C71.7089 163.738 71.7089 159.772 74.4959 154.158C75.5216 154.158 76.5931 154.158 77.6135 154.158C79.7094 158.573 79.106 164.795 76.3321 168.004ZM60.0255 144.823C61.1443 146.143 62.4611 147.207 63.9379 148.62C62.9582 148.953 62.1489 149.332 61.3122 149.5C55.0377 150.768 48.7514 150.309 42.4848 149.435C35.5427 148.465 28.6728 146.939 21.8986 144.792C21.1104 144.54 20.3366 144.223 19.4788 143.906C19.4788 140.644 19.4788 137.697 19.4788 134.537C22.7183 135.303 25.8241 135.901 28.8735 136.787C36.7074 139.064 44.6397 140.182 52.6756 140.222C54.1091 140.231 55.544 140.224 56.7978 140.224C57.9546 141.895 58.8937 143.485 60.0255 144.823ZM58.6392 137.572C62.0637 134.793 68.7959 136.662 71.6118 141.129C70.9744 143.091 70.4157 144.8 69.8491 146.543C65.6062 147.909 60.1501 143.572 58.6392 137.572ZM70.7003 149.808C71.238 150.624 71.7981 151.479 72.3489 152.315C71.1357 157.406 64.2933 161.905 59.6124 160.718C60.2852 153.304 63.8015 149.649 70.7003 149.808ZM76.9341 139.654C75.1556 140.159 73.5451 140.129 72.2335 138.056C71.6223 137.094 70.6518 136.479 69.8176 135.682C69.4753 132.075 70.2609 129.348 72.3738 126.902C76.6233 129.512 78.546 134.842 76.9341 139.654ZM75.9727 126.553C74.9969 125.679 74.4146 125.127 73.806 124.618C72.4656 123.499 71.8531 123.511 70.7567 124.96C69.1225 127.116 68.0811 129.685 67.6667 132.622C67.5958 133.125 67.5434 133.63 67.4411 134.491C66.4286 134.302 65.4409 134.15 64.4652 133.924C62.1752 133.397 59.9691 133.977 57.767 134.656C56.8345 134.944 56.3991 135.703 56.4122 136.888C56.4174 137.396 56.4135 137.906 56.4135 138.649C55.8377 138.71 55.258 138.817 54.6796 138.822C45.5302 138.906 36.4897 137.847 27.6157 134.924C26.2989 134.49 24.9165 134.388 23.5709 134.078C22.2396 133.769 20.9176 133.393 19.4447 133.009C19.4447 123.553 19.4447 114.525 19.4447 105.44C20.5608 105.438 20.347 106.42 20.4034 107.084C20.608 109.474 21.3819 111.516 22.7577 113.187C24.1073 114.824 24.6778 114.81 26.0143 113.217C26.5573 112.571 27.1029 111.929 27.7468 111.166C36.1552 113.862 44.8521 113.792 53.5425 113.132C58.3861 112.762 63.2244 111.928 68.0168 110.949C70.1416 110.518 72.1522 109.216 74.2087 108.286C74.6992 108.065 75.1635 107.755 75.8836 107.347C76.037 113.792 76.0252 119.936 75.9727 126.553ZM22.9925 102.184C23.8699 102.277 24.7827 102.375 25.6444 102.465C26.9271 106.334 26.5323 109.065 24.3565 111.295C22.3354 108.735 21.9419 106.079 22.9925 102.184ZM37.2373 99.2105C37.0877 98.8446 36.9304 98.4852 36.5749 97.6487C47.4385 98.1094 57.8943 97.8643 68.3067 94.855C68.3067 96.8253 68.3198 98.6796 68.3001 100.529C68.2923 101.475 67.7322 101.816 67.104 102.029C65.5865 102.543 64.0822 103.146 62.545 103.543C54.2442 105.693 45.8293 106.028 37.3894 105.832C36.1644 105.806 34.9447 105.486 33.7236 105.278C33.637 105.264 33.5741 105.046 33.4521 104.842C34.3505 104.465 35.2712 104.205 36.0988 103.705C37.9324 102.597 38.1737 101.512 37.2373 99.2105ZM28.3331 101.16C28.8433 99.57 29.3128 98.0963 29.7837 96.6243C32.8803 96.9315 34.3086 98.0326 35.5034 101.227C33.0652 102.462 30.7241 102.565 28.3331 101.16ZM70.4734 101.421C72.3856 101.519 74.2848 101.145 75.6121 103.399C75.1202 104.849 74.1326 105.456 73.1595 106.04C70.7383 107.494 68.1887 108.42 65.5236 108.882C57.9874 110.183 50.4368 111.165 42.8114 110.879C38.4937 110.715 34.1958 110.323 29.9712 109.142C28.48 108.727 28.4879 108.68 28.6335 106.611C34.3977 108.618 40.1135 108.636 45.8896 108.338C51.0991 108.072 56.2824 107.696 61.4 106.427C63.4762 105.912 65.5249 105.223 67.5814 104.587C68.9625 104.161 70.1324 103.381 70.4734 101.421ZM31.7654 67.5977C37.5691 65.6878 43.4868 65.1307 49.461 65.4967C53.8979 65.7662 58.3336 66.1453 62.7628 66.5684C64.1871 66.7056 65.601 67.0928 67.0056 67.4506C67.4857 67.5715 67.9237 67.9489 68.8864 68.4962C67.7493 69.2118 67.0988 69.8391 66.3748 70.0336C64.174 70.6299 61.9601 71.2605 59.7252 71.5186C52.5641 72.3437 45.3846 72.476 38.2131 71.7245C35.6319 71.4533 33.0639 70.9713 30.4985 70.5073C29.7955 70.3799 29.1279 69.9617 28.2439 69.5908C29.3561 68.1008 30.6205 67.975 31.7654 67.5977ZM27.5055 72.5659C41.2375 75.6193 54.7951 75.6569 68.6438 72.3339C68.6438 78.7087 68.6346 85.0117 68.6516 91.313C68.6556 92.772 68.0693 93.5121 66.9807 93.7408C63.8802 94.3943 60.7954 95.234 57.6752 95.6425C50.7909 96.5427 43.879 96.7077 36.9684 96.1702C35.9126 96.0868 34.8725 95.5526 33.843 95.1523C32.8737 94.7749 31.9294 94.3012 30.7923 93.7865C31.1569 93.0219 31.5202 92.3374 31.8245 91.6137C32.9196 89.0078 33.4088 86.3187 32.2494 83.5495C31.3274 81.3456 30.6205 81.0679 28.7581 81.9517C28.3213 82.1576 27.8924 82.3928 27.1081 82.798C27.2852 79.14 26.9586 75.8023 27.5055 72.5659ZM29.9044 84.3843C31.4402 86.6994 30.9405 89.6221 28.4721 92.5318C27.6563 91.8244 26.8274 91.1056 26.0117 90.3981C26.2058 87.1127 27.2616 85.492 29.9044 84.3843ZM24.5729 93.0938C26.0576 93.0726 27.3822 94.5838 27.4386 96.358C27.5016 98.3087 26.51 99.717 25.0437 99.7611C23.3715 99.8101 22.0573 98.6894 22.0035 97.1667C21.9196 94.7717 22.9662 93.1118 24.5729 93.0938ZM23.062 90.1302C21.997 91.5026 21.0212 92.7605 19.9208 94.1803C18.0859 92.4567 17.5692 91.4519 16.9501 88.2383C19.2768 87.6469 21.2901 88.2481 23.062 90.1302ZM13.8299 101.885C14.3545 99.1811 15.5415 97.5899 17.3501 96.6848C18.5922 96.0656 19.387 96.5296 19.8932 98.0914C20.1188 98.789 20.3221 99.4965 20.57 100.315C18.562 102.311 16.2406 101.71 13.8299 101.885ZM13.7775 144.957C14.752 144.589 15.7763 144.415 17.1324 144.073C17.2806 146.143 18.4991 146.352 19.6336 146.713C32.4973 150.806 45.4922 153.549 58.8451 152.639C59.0274 152.627 59.215 152.724 59.4642 152.786C59.3225 154.103 58.832 154.846 57.7526 154.884C56.382 154.936 55.0128 155.088 53.6461 155.053C41.5024 154.751 29.4191 153.701 17.5902 149.981C16.1501 149.528 14.7703 148.68 13.4404 147.827C12.9971 147.543 12.5958 146.682 12.5669 146.058C12.5525 145.707 13.3014 145.137 13.7775 144.957ZM11.3406 176.455C11.4075 168.352 11.5098 160.252 11.6147 152.152C11.6239 151.503 11.7537 150.856 11.8705 149.839C14.7992 152 17.8512 152.848 20.9097 153.673C28.2925 155.666 35.7932 156.532 43.3084 157.145C47.7441 157.506 52.2008 157.463 56.6483 157.609C56.9132 157.617 57.1742 157.681 57.6293 157.746C57.4785 159.012 57.3054 160.015 57.2503 161.028C57.1506 162.83 57.5152 163.418 58.9186 163.536C62.1122 163.805 65.2167 163.451 68.0064 161.2C68.6844 160.656 69.4228 160.229 70.4183 159.551C70.2727 164.198 72.303 167.146 74.5838 169.916C75.9806 171.61 76.6311 171.613 77.9978 169.827C79.7028 167.597 80.8084 165.008 80.8189 161.837C80.8229 160.843 80.8202 159.848 80.8202 158.375C82.2564 159.357 83.303 160.072 84.326 160.77C84.326 167.053 84.326 173.177 84.326 179.612C82.0334 180.171 79.7802 180.729 77.523 181.268C66.6961 183.858 55.7748 184.237 44.7984 183.492C38.9213 183.093 33.0245 183.031 27.154 182.512C23.1354 182.157 19.147 181.28 15.1467 180.615C14.6077 180.525 14.0752 180.327 13.5506 180.135C11.3576 179.328 11.317 179.321 11.3406 176.455ZM84.2211 190.584C84.2198 191.537 83.6912 191.912 83.0696 192.139C80.8439 192.955 78.6391 193.904 76.3767 194.528C70.6767 196.103 64.8822 196.544 59.0537 196.786C51.7273 197.088 44.4062 197.341 37.093 196.689C28.6938 195.941 20.3169 194.953 12.1236 192.34C11.999 192.299 11.8914 192.175 11.6108 191.968C11.6108 188.47 11.6108 184.848 11.6108 180.981C12.6036 181.28 13.5611 181.594 14.5264 181.852C19.0853 183.07 23.6889 183.798 28.3567 183.984C37.4537 184.346 46.5454 184.957 55.6436 185.189C64.6448 185.418 73.5175 183.768 82.3272 181.587C82.9148 181.442 83.5102 181.358 84.2211 181.223C84.2224 184.48 84.2237 187.532 84.2211 190.584ZM93.924 195.698C93.2708 196.858 92.4314 197.982 91.4766 198.728C88.6266 200.957 85.5917 202.617 82.2236 203.433C69.7901 206.446 57.2332 207.58 44.599 207.147C35.3552 206.833 26.1074 206.132 16.9737 204.229C12.5184 203.299 8.16532 201.685 4.36312 198.402C3.85817 197.965 3.34929 197.511 2.92828 196.961C1.76493 195.446 1.75312 192.96 3.07517 191.751C4.84184 190.136 6.80261 188.934 9.30506 188.857C9.36146 190.109 9.44146 191.264 9.4572 192.42C9.47425 193.693 9.83755 194.445 10.9393 194.721C16.714 196.157 22.4416 197.903 28.3593 198.312C33.8298 198.689 39.2925 199.581 44.7603 199.579C52.9064 199.578 61.0669 199.235 69.1959 198.56C74.2402 198.142 79.2306 196.867 84.006 194.546C85.5812 193.781 86.7144 192.969 86.3563 190.571C86.3104 190.27 86.4416 189.932 86.536 189.3C89.0608 189.445 91.3901 189.501 93.3364 191.483C94.5968 192.77 94.8604 194.033 93.924 195.698Z" fill="#090302"/>
<path d="M136.306 159.709C130.137 161.793 125.955 157.756 125.955 149.941C125.955 140.434 134.215 130.796 141.22 131.838C143.625 132.228 144.775 133.531 144.566 136.526C144.357 139.913 142.58 141.345 140.175 141.736C139.861 141.866 139.548 141.475 139.234 141.345C139.338 140.955 139.443 140.564 139.652 140.303C140.279 139.652 141.116 139.261 141.848 138.61C142.789 137.829 142.893 136.526 142.475 135.224C142.057 134.052 141.116 134.182 140.279 134.052C134.842 133.921 127.314 144.08 127.837 150.853C128.151 156.063 131.601 158.928 136.097 157.365C143.521 154.89 149.271 148.899 155.022 143.169C158.159 140.043 160.355 137.829 163.805 135.094C164.537 134.573 165.269 133.791 166.001 134.833C166.105 134.963 165.373 136.266 164.85 136.657C158.682 142.648 153.349 147.597 147.076 153.458C143.834 156.453 140.175 158.407 136.306 159.709V159.709ZM159.204 159.449C156.904 157.626 157.531 154.369 157.95 151.765C159.1 145.513 161.714 140.173 164.328 134.833C164.746 134.052 165.373 132.749 166.314 133.661C167.255 134.573 166.419 135.615 166.105 136.526C163.909 141.475 161.609 146.164 160.25 151.634C159.727 153.588 158.995 155.411 160.355 156.974C161.923 158.667 163.596 157.886 165.164 156.714C171.333 152.416 176.143 146.164 180.952 139.913C181.266 139.392 181.58 138.871 181.998 138.35C182.834 137.308 183.462 134.833 185.135 136.266C186.494 137.438 185.03 139.001 184.612 140.303C183.462 143.429 182.207 146.425 181.266 149.681C180.011 154.5 182.102 157.495 185.971 156.323C190.572 155.021 194.754 152.416 198.309 148.378C202.7 143.429 205.942 139.652 210.333 134.833C210.856 134.182 211.483 133.661 212.111 134.573C212.215 134.703 211.901 135.745 211.588 136.136C204.896 144.341 199.668 151.895 190.885 156.844C188.899 157.886 186.808 159.319 184.926 158.798C179.802 158.667 178.234 155.932 178.861 149.03C178.966 148.248 179.279 146.815 179.175 146.685C178.234 146.294 177.711 147.336 177.188 147.988C173.738 152.286 169.974 156.063 165.687 158.928C163.491 160.361 161.296 161.012 159.204 159.449V159.449ZM185.135 211.676C183.253 210.504 182.416 208.42 182.73 205.815C183.148 202.168 184.194 198.652 185.344 195.396C188.585 186.8 192.454 178.464 197.263 171.04C202.805 162.184 206.674 152.546 209.078 141.866C209.915 138.48 210.856 131.577 213.261 132.228C214.411 132.619 211.692 139.131 211.17 142.648C210.647 145.122 209.706 148.378 210.124 149.03C211.17 149.29 212.842 146.555 214.202 144.992C217.548 141.215 220.475 136.787 224.344 133.791C225.703 132.749 227.062 131.707 228.526 131.056C233.022 129.102 235.113 131.056 234.8 137.959C234.8 140.043 233.963 142.517 232.917 145.122C232.395 146.294 230.931 147.857 231.663 149.03C232.708 150.592 234.381 148.899 235.531 148.509C243.269 145.773 248.183 141.736 254.979 136.526C255.816 135.875 258.011 133.14 258.743 134.573C259.266 135.484 257.489 136.917 256.547 137.698C249.647 143.169 244.628 147.467 236.682 150.332C231.767 152.025 226.853 153.718 222.775 157.886C220.58 159.709 217.652 161.142 215.561 159.058C214.724 158.146 214.097 156.714 214.724 154.89C215.875 151.504 218.279 151.504 220.789 151.374C227.899 150.983 232.917 144.732 232.917 136.396C232.917 133.14 231.976 131.968 229.363 133.4C228.631 133.791 227.69 134.052 227.062 134.703C217.652 143.559 208.137 152.416 204.373 167.394C201.655 178.074 198.204 188.363 194.754 198.782C193.395 202.689 191.826 206.727 189.212 209.722C188.167 211.025 186.912 212.718 185.135 211.676V211.676ZM218.07 157.756C219.952 157.365 221.73 156.323 222.566 154.239C222.88 153.588 221.312 153.718 220.684 153.588C218.802 153.458 217.129 153.718 216.711 156.323C216.607 157.235 217.338 157.886 218.07 157.756ZM185.657 209.071C186.912 209.592 187.644 208.42 188.271 207.378C189.212 205.945 190.153 204.252 190.885 202.559C194.754 192.661 197.786 182.372 200.714 171.952C200.923 171.171 201.341 170.389 200.818 169.608C200.296 170.129 199.564 170.52 199.145 171.171C194.336 179.897 189.526 188.623 186.285 198.522C185.657 200.736 184.926 202.95 184.403 204.513C184.403 206.727 184.194 208.42 185.657 209.071V209.071ZM231.454 211.676C229.572 210.504 228.735 208.42 229.049 205.815C229.467 202.168 230.513 198.652 231.663 195.396C234.904 186.8 238.773 178.464 243.582 171.04C249.124 162.184 252.993 152.546 255.397 141.866C256.234 138.48 257.175 131.577 259.58 132.228C260.73 132.619 258.011 139.131 257.489 142.648C256.966 145.122 256.025 148.378 256.443 149.03C257.489 149.29 259.161 146.555 260.521 144.992C263.867 141.215 266.794 136.787 270.663 133.791C272.022 132.749 273.381 131.707 274.845 131.056C279.341 129.102 281.432 131.056 281.119 137.959C281.119 140.043 280.282 142.517 279.236 145.122C278.714 146.294 277.25 147.857 277.982 149.03C279.027 150.592 280.7 148.899 281.85 148.509C289.588 145.773 294.502 141.736 301.298 136.526C302.135 135.875 304.33 133.14 305.062 134.573C305.585 135.484 303.808 136.917 302.867 137.698C295.966 143.169 290.947 147.467 283.001 150.332C278.086 152.025 273.172 153.718 269.094 157.886C266.899 159.709 263.971 161.142 261.88 159.058C261.043 158.146 260.416 156.714 261.043 154.89C262.194 151.504 264.598 151.504 267.108 151.374C274.218 150.983 279.236 144.732 279.236 136.396C279.236 133.14 278.295 131.968 275.682 133.4C274.95 133.791 274.009 134.052 273.381 134.703C263.971 143.559 254.456 152.416 250.692 167.394C247.974 178.074 244.523 188.363 241.073 198.782C239.714 202.689 238.145 206.727 235.531 209.722C234.486 211.025 233.231 212.718 231.454 211.676V211.676ZM264.389 157.756C266.271 157.365 268.049 156.323 268.885 154.239C269.199 153.588 267.631 153.718 267.003 153.588C265.121 153.458 263.448 153.718 263.03 156.323C262.926 157.235 263.657 157.886 264.389 157.756ZM231.976 209.071C233.231 209.592 233.963 208.42 234.59 207.378C235.531 205.945 236.472 204.252 237.204 202.559C241.073 192.661 244.105 182.372 247.033 171.952C247.242 171.171 247.66 170.389 247.137 169.608C246.615 170.129 245.883 170.52 245.464 171.171C240.655 179.897 235.845 188.623 232.604 198.522C231.976 200.736 231.245 202.95 230.722 204.513C230.722 206.727 230.513 208.42 231.976 209.071V209.071ZM286.974 209.201C282.06 207.378 280.491 203.471 282.164 197.349C283.732 191.619 286.974 187.321 290.32 183.283C293.352 179.506 295.443 176.511 299.207 173.385C308.199 167.263 313.113 156.584 316.145 145.383C316.354 144.862 315.936 144.211 315.623 144.732C312.381 147.988 309.767 152.155 306.108 154.76C304.435 156.063 302.657 157.235 300.775 156.193C298.475 154.89 299.207 152.025 299.207 149.811C299.312 143.82 301.716 138.74 303.912 133.531C304.226 132.879 304.853 132.228 305.585 133.01C306.003 133.531 305.794 134.052 305.585 134.703C304.435 137.829 303.285 140.955 302.239 144.211C301.716 145.904 301.298 147.857 301.089 149.811C300.984 151.113 300.566 153.067 301.716 153.979C302.867 154.89 304.017 153.849 305.062 153.067C309.872 149.29 313.322 143.69 317.191 138.871C318.655 137.177 319.805 132.879 321.478 134.312C323.36 136.005 321.269 139.522 320.328 141.996C318.446 147.206 316.354 152.416 314.368 157.756C314.054 158.407 313.636 159.579 314.159 159.97C314.786 160.621 315.309 159.579 315.832 159.188C325.346 151.634 334.861 144.471 344.271 137.047C345.212 136.266 346.049 135.615 346.99 134.963C347.513 134.442 348.14 133.531 348.663 134.573C349.186 135.615 348.245 136.005 347.722 136.396C341.553 141.475 335.279 146.164 329.11 151.244C326.601 153.328 324.301 155.672 321.582 157.105C313.322 163.486 309.872 169.608 307.258 179.376C305.062 187.712 302.448 196.047 298.161 203.21C295.129 208.29 290.529 210.634 286.974 209.201V209.201ZM290.947 206.987C293.875 205.424 296.279 202.95 297.848 199.564C302.03 190.186 305.48 180.418 307.572 169.868L307.362 169.738C298.475 175.859 291.051 183.934 285.196 194.354C284.464 195.526 283.942 196.959 283.628 198.391C282.896 200.996 282.791 203.731 284.673 205.555C286.451 207.118 288.438 208.29 290.947 206.987V206.987ZM377.625 159.709C371.456 161.793 367.274 157.756 367.274 149.941C367.274 140.434 375.534 130.796 382.539 131.838C384.944 132.228 386.094 133.531 385.885 136.526C385.676 139.913 383.899 141.345 381.494 141.736C381.18 141.866 380.866 141.475 380.553 141.345C380.657 140.955 380.762 140.564 380.971 140.303C381.598 139.652 382.435 139.261 383.167 138.61C384.108 137.829 384.212 136.526 383.794 135.224C383.376 134.052 382.435 134.182 381.598 134.052C376.161 133.921 368.633 144.08 369.156 150.853C369.47 156.063 372.92 158.928 377.416 157.365C384.84 154.89 390.59 148.899 396.341 143.169C399.478 140.043 401.673 137.829 405.124 135.094C405.856 134.573 406.588 133.791 407.32 134.833C407.424 134.963 406.692 136.266 406.169 136.657C400.001 142.648 394.668 147.597 388.395 153.458C385.153 156.453 381.494 158.407 377.625 159.709V159.709ZM446.633 134.703C447.679 135.745 446.529 136.657 446.006 137.177C440.36 144.08 435.446 150.332 428.754 155.542C427.499 156.453 426.349 157.365 425.094 158.016C422.689 159.188 420.285 159.319 418.194 157.235C415.998 155.021 416.102 151.895 416.625 148.899C417.043 146.685 417.671 144.471 418.194 142.387C413.593 145.122 410.874 150.983 406.588 154.369C405.124 155.542 403.765 156.844 402.196 157.756C400.314 158.798 398.537 159.319 396.864 157.495C395.295 155.672 395.191 153.197 395.609 150.853C397.177 141.606 406.065 132.489 413.802 132.228C415.266 132.228 416.834 132.879 418.194 133.921C418.821 134.442 419.344 135.745 420.285 135.094C421.435 134.312 422.376 131.838 423.631 134.442C424.572 136.136 423.212 137.568 422.69 139.131C421.435 142.387 419.762 145.513 419.135 149.16C418.716 151.504 418.089 153.718 419.971 155.542C421.853 157.235 423.526 156.453 425.303 155.281C429.068 153.067 432.413 149.941 435.446 146.294C438.582 142.517 441.405 139.782 444.542 136.005C445.065 135.224 445.797 133.921 446.633 134.703V134.703ZM415.998 140.564C416.834 139.522 417.775 138.35 417.253 136.657C416.521 134.442 414.848 135.484 413.802 135.224C407.424 135.224 400.628 141.736 398.223 149.941C397.7 152.025 396.759 154.109 398.537 155.802C400.105 157.495 401.569 155.932 402.719 155.021C407.842 151.244 411.816 145.773 415.998 140.564V140.564ZM463.572 160.491C458.239 161.142 454.266 158.277 451.234 152.807C449.979 150.592 449.77 148.769 452.593 147.597C457.194 145.904 460.853 142.127 464.303 138.219C465.349 137.047 466.081 135.484 466.708 133.921C467.231 132.749 467.963 131.186 466.708 129.884C465.663 128.842 464.722 129.493 463.781 130.014C460.853 131.577 458.344 133.791 455.939 136.396C450.397 142.648 445.901 150.071 441.196 157.365C440.464 158.537 440.046 161.272 438.269 159.97C436.805 158.928 438.373 157.235 438.687 156.063C446.947 130.275 456.775 105.529 467.754 81.4338C470.577 75.3124 473.923 69.3212 478.837 65.2837C479.882 64.372 480.928 63.7208 481.974 63.0696C485.424 60.8555 488.979 59.8135 492.22 63.0696C495.357 66.3257 494.625 70.8841 493.58 75.0519C492.22 81.043 489.502 85.9922 486.365 90.681C476.118 106.18 463.99 119.074 451.234 131.186C446.947 135.354 446.32 141.345 444.228 146.685C443.81 147.857 444.542 148.118 445.692 146.425C448.829 141.866 452.175 137.438 455.834 133.4C458.135 130.665 460.853 128.712 463.781 127.279C465.454 126.498 467.126 126.628 468.486 128.581C469.95 130.665 469.531 132.359 468.695 134.573C466.185 141.215 461.167 144.601 456.462 148.118C452.593 151.113 452.488 152.025 456.148 155.411C460.539 159.449 465.349 159.188 469.95 156.844C477.582 152.937 483.437 146.294 488.77 138.74C489.815 137.568 492.429 133.4 493.266 134.182C494.207 134.963 491.488 138.219 490.129 140.173C484.692 148.248 479.255 153.588 472.145 158.016C469.427 159.709 466.708 160.751 463.572 160.491V160.491ZM452.175 126.888C466.29 114.776 478.628 100.319 488.665 82.9967C490.338 80.0011 491.593 76.745 492.011 72.968C492.325 70.1027 492.848 66.9769 490.966 65.1535C488.77 62.9394 486.051 63.5906 483.542 65.0232C479.046 67.4978 475.491 71.7958 472.773 76.8753C464.513 92.5044 458.03 109.436 451.861 126.498C451.652 126.888 451.757 127.149 452.175 126.888V126.888ZM494.416 158.667C487.515 158.667 484.692 153.718 486.679 145.513C488.038 140.434 490.338 136.266 493.789 133.14C496.298 130.926 499.121 130.665 501.526 133.01C503.408 134.833 502.781 139.782 500.376 142.778C497.762 146.034 494.625 147.988 490.756 147.727C488.247 147.467 487.306 149.681 488.561 152.546C489.92 155.672 493.684 157.365 497.344 156.063C503.408 153.849 508.636 149.551 513.132 144.08C515.85 140.824 518.046 138.74 520.765 135.354C521.183 134.833 521.81 133.921 522.437 134.963C522.751 135.484 522.542 136.136 522.228 136.657C515.118 145.773 508.636 153.849 498.494 158.016C497.135 158.537 495.775 158.537 494.416 158.667V158.667ZM491.279 145.253C493.998 146.815 500.585 141.215 500.689 136.657C500.585 134.703 499.33 133.661 497.239 134.052C495.148 134.312 490.443 140.173 490.129 142.778C489.92 144.08 490.443 144.862 491.279 145.253ZM518.987 162.184C517.419 159.84 518.882 157.235 521.706 155.542C524.424 153.849 524.947 151.244 524.11 148.899C521.392 141.215 520.555 139.131 521.183 136.005C521.81 133.27 523.588 131.447 525.679 131.317C527.665 131.186 529.025 132.359 529.861 134.442C530.593 136.266 530.384 139.261 528.502 140.824C528.084 141.085 527.352 141.606 526.933 141.085C526.306 140.564 526.62 140.043 527.143 139.392C529.861 136.787 526.933 132.228 524.633 134.442C522.124 136.787 523.169 140.564 526.62 149.811C526.933 150.592 527.665 151.765 528.92 150.983C531.325 149.681 534.357 147.988 537.285 146.294C542.617 143.169 547.427 139.392 552.341 135.354C552.968 134.833 553.805 133.4 554.537 134.833C555.164 136.005 554.118 136.526 553.386 137.177C546.486 143.299 539.271 148.378 531.325 152.155C528.815 153.328 526.933 155.411 526.306 158.407C525.574 161.663 520.974 165.18 518.987 162.184V162.184ZM522.333 160.751C524.738 159.579 525.679 155.281 523.588 156.584C519.092 159.319 520.346 161.793 522.333 160.751Z" fill="#090302"/>
</svg>
